<svg width="1600" height="960" viewBox="0 0 1600 960" fill="none" xmlns="http://www.w3.org/2000/svg">
  <rect width="1600" height="960" rx="48" fill="url(#bg)"/>
  <circle cx="1248" cy="200" r="90" fill="#FFCA72"/>
  <path d="M0 742C180 654 340 674 509 752C684 833 868 849 1095 765C1279 697 1432 697 1600 756V960H0V742Z" fill="#0B405B"/>
  <path d="M0 822C188 748 399 777 580 839C726 889 901 896 1096 848C1265 805 1428 804 1600 850V960H0V822Z" fill="#072638"/>
  <path d="M220 596C310 446 372 383 490 324C608 382 686 480 788 596H220Z" fill="#F8E08E" fill-opacity="0.86"/>
  <path d="M934 592L1048 314L1160 592H934Z" fill="#E6F2F5" fill-opacity="0.23"/>
  <path d="M980 592L1084 220L1188 592H980Z" fill="#E6F2F5" fill-opacity="0.18"/>
  <rect x="1106" y="170" width="296" height="184" rx="28" fill="#FFFFFF" fill-opacity="0.1" stroke="#FFFFFF" stroke-opacity="0.16" stroke-width="2"/>
  <text x="1138" y="230" fill="#F8FAFC" font-family="Arial, sans-serif" font-size="26" font-weight="700">Australia</text>
  <text x="1138" y="274" fill="#D8F3F0" font-family="Arial, sans-serif" font-size="18">Coastal student cities</text>
  <text x="1138" y="308" fill="#D8F3F0" font-family="Arial, sans-serif" font-size="18">Career-focused study</text>
  <text x="1138" y="342" fill="#D8F3F0" font-family="Arial, sans-serif" font-size="18">Popular regional routes</text>
  <defs>
    <linearGradient id="bg" x1="130" y1="66" x2="1485" y2="878" gradientUnits="userSpaceOnUse">
      <stop stop-color="#0C8D8F"/>
      <stop offset="0.55" stop-color="#0A5A70"/>
      <stop offset="1" stop-color="#061E2E"/>
    </linearGradient>
  </defs>
</svg>
