<svg width="1600" height="960" viewBox="0 0 1600 960" fill="none" xmlns="http://www.w3.org/2000/svg">
  <rect width="1600" height="960" rx="48" fill="url(#bg)"/>
  <circle cx="1248" cy="184" r="86" fill="#FFDC8A"/>
  <path d="M0 718C189 634 376 656 544 729C709 800 864 819 1059 756C1239 697 1413 698 1600 764V960H0V718Z" fill="#1F6B41"/>
  <path d="M0 810C191 747 394 770 572 835C728 889 900 895 1099 842C1274 797 1436 800 1600 848V960H0V810Z" fill="#103621"/>
  <path d="M198 592C312 426 420 344 563 286C624 394 677 488 756 592H198Z" fill="#CDECCF" fill-opacity="0.8"/>
  <path d="M522 592C626 462 720 390 850 338C912 432 969 513 1040 592H522Z" fill="#E2F6E0" fill-opacity="0.56"/>
  <rect x="1108" y="160" width="294" height="186" rx="28" fill="#FFFFFF" fill-opacity="0.1" stroke="#FFFFFF" stroke-opacity="0.18" stroke-width="2"/>
  <text x="1140" y="220" fill="#F0FDF4" font-family="Arial, sans-serif" font-size="26" font-weight="700">New Zealand</text>
  <text x="1140" y="264" fill="#DCFCE7" font-family="Arial, sans-serif" font-size="18">Safe student lifestyle</text>
  <text x="1140" y="298" fill="#DCFCE7" font-family="Arial, sans-serif" font-size="18">Nature-forward living</text>
  <text x="1140" y="332" fill="#DCFCE7" font-family="Arial, sans-serif" font-size="18">Research-led education</text>
  <defs>
    <linearGradient id="bg" x1="126" y1="66" x2="1452" y2="880" gradientUnits="userSpaceOnUse">
      <stop stop-color="#2E8B57"/>
      <stop offset="0.55" stop-color="#1F6B41"/>
      <stop offset="1" stop-color="#0A1D14"/>
    </linearGradient>
  </defs>
</svg>
