<svg width="1600" height="960" viewBox="0 0 1600 960" fill="none" xmlns="http://www.w3.org/2000/svg">
  <rect width="1600" height="960" rx="48" fill="url(#bg)"/>
  <circle cx="1254" cy="194" r="88" fill="#FFD37C"/>
  <path d="M0 726C182 648 360 662 540 734C716 805 891 821 1090 754C1264 696 1424 701 1600 758V960H0V726Z" fill="#8B1E3F"/>
  <path d="M0 812C183 745 388 772 583 835C736 886 912 894 1110 846C1276 807 1432 809 1600 852V960H0V812Z" fill="#531126"/>
  <path d="M272 592C350 474 439 402 565 350L693 592H272Z" fill="#F9E0A4" fill-opacity="0.8"/>
  <circle cx="552" cy="430" r="74" fill="#FFF6D9" fill-opacity="0.35"/>
  <rect x="1112" y="164" width="290" height="186" rx="28" fill="#FFFFFF" fill-opacity="0.1" stroke="#FFFFFF" stroke-opacity="0.18" stroke-width="2"/>
  <text x="1144" y="224" fill="#FFF7ED" font-family="Arial, sans-serif" font-size="26" font-weight="700">Spain</text>
  <text x="1144" y="268" fill="#FDE7EF" font-family="Arial, sans-serif" font-size="18">Culture-rich study life</text>
  <text x="1144" y="302" fill="#FDE7EF" font-family="Arial, sans-serif" font-size="18">Vibrant city options</text>
  <text x="1144" y="336" fill="#FDE7EF" font-family="Arial, sans-serif" font-size="18">Creative course appeal</text>
  <defs>
    <linearGradient id="bg" x1="132" y1="62" x2="1456" y2="882" gradientUnits="userSpaceOnUse">
      <stop stop-color="#D12F5F"/>
      <stop offset="0.55" stop-color="#A41B47"/>
      <stop offset="1" stop-color="#4C1324"/>
    </linearGradient>
  </defs>
</svg>
